<svg width="60" height="354" viewBox="0 0 60 354" fill="none" xmlns="http://www.w3.org/2000/svg">
<path d="M3.73295 4.31818H5.20455L8.66477 12.7699H8.78409L12.2443 4.31818H13.7159V14.5H12.5625V6.7642H12.4631L9.28125 14.5H8.16761L4.9858 6.7642H4.88636V14.5H3.73295V4.31818ZM16.188 14.5V4.31818H22.3329V5.41193H17.421V8.85227H22.0147V9.94602H17.421V13.4062H22.4125V14.5H16.188ZM32.6291 4.31818V14.5H31.4359L25.8876 6.50568H25.7882V14.5H24.5552V4.31818H25.7484L31.3166 12.3324H31.416V4.31818H32.6291ZM41.7781 4.31818H43.011V11.0597C43.011 11.7557 42.8469 12.3771 42.5188 12.924C42.194 13.4676 41.735 13.8968 41.1417 14.2116C40.5484 14.5232 39.8524 14.679 39.0536 14.679C38.2549 14.679 37.5588 14.5232 36.9656 14.2116C36.3723 13.8968 35.9116 13.4676 35.5835 12.924C35.2586 12.3771 35.0962 11.7557 35.0962 11.0597V4.31818H36.3292V10.9602C36.3292 11.4574 36.4386 11.8999 36.6573 12.2876C36.8761 12.6721 37.1876 12.9754 37.592 13.1974C37.9996 13.4162 38.4869 13.5256 39.0536 13.5256C39.6204 13.5256 40.1076 13.4162 40.5153 13.1974C40.9229 12.9754 41.2345 12.6721 41.4499 12.2876C41.6687 11.8999 41.7781 11.4574 41.7781 10.9602V4.31818Z" fill="#3E2B31"/>
<path d="M6.58419 101.385L7.03818 100.494L6.58419 101.385ZM2.11471 96.9158L3.00571 96.4618L2.11471 96.9158ZM36.7035 96.9158L35.8125 96.4618L36.7035 96.9158ZM32.234 101.385L31.78 100.494L32.234 101.385ZM32.234 66.7965L31.78 67.6875L32.234 66.7965ZM36.7035 71.266L35.8125 71.72L36.7035 71.266ZM6.58419 66.7965L7.03818 67.6875L6.58419 66.7965ZM2.11471 71.266L3.00571 71.72L2.11471 71.266ZM37.8182 93.3182C37.2659 93.3182 36.8182 93.7659 36.8182 94.3182C36.8182 94.8705 37.2659 95.3182 37.8182 95.3182V93.3182ZM8.18182 65.6818C8.18182 66.2341 8.62953 66.6818 9.18182 66.6818C9.7341 66.6818 10.1818 66.2341 10.1818 65.6818H8.18182ZM10.5358 89.5049C10.1368 89.8868 10.123 90.5198 10.5049 90.9188C10.8868 91.3177 11.5198 91.3316 11.9188 90.9496L10.5358 89.5049ZM26.8994 90.9496C27.2984 91.3316 27.9314 91.3177 28.3133 90.9188C28.6952 90.5198 28.6814 89.8868 28.2824 89.5049L26.8994 90.9496ZM17.3636 66.6818H21.4545V64.6818H17.3636V66.6818ZM36.8182 82.0455V86.1364H38.8182V82.0455H36.8182ZM21.4545 101.5H17.3636V103.5H21.4545V101.5ZM2 86.1364V82.0455H0V86.1364H2ZM17.3636 101.5C14.4832 101.5 12.3831 101.499 10.7278 101.364C9.08424 101.23 7.96758 100.968 7.03818 100.494L6.1302 102.276C7.38853 102.917 8.79769 103.213 10.565 103.357C12.3205 103.501 14.5162 103.5 17.3636 103.5V101.5ZM0 86.1364C0 88.9838 -0.000777721 91.1795 0.142659 92.935C0.28705 94.7023 0.582546 96.1115 1.2237 97.3698L3.00571 96.4618C2.53216 95.5324 2.2703 94.4158 2.13602 92.7722C2.00078 91.1169 2 89.0168 2 86.1364H0ZM7.03818 100.494C5.30196 99.6096 3.89036 98.198 3.00571 96.4618L1.2237 97.3698C2.3001 99.4823 4.01765 101.2 6.1302 102.276L7.03818 100.494ZM36.8182 86.1364C36.8182 89.0168 36.8174 91.1169 36.6822 92.7722C36.5479 94.4158 36.286 95.5324 35.8125 96.4618L37.5945 97.3698C38.2356 96.1115 38.5311 94.7023 38.6755 92.935C38.819 91.1795 38.8182 88.9838 38.8182 86.1364H36.8182ZM21.4545 103.5C24.3019 103.5 26.4976 103.501 28.2532 103.357C30.0205 103.213 31.4296 102.917 32.688 102.276L31.78 100.494C30.8506 100.968 29.7339 101.23 28.0904 101.364C26.4351 101.499 24.335 101.5 21.4545 101.5V103.5ZM35.8125 96.4618C34.9278 98.198 33.5162 99.6096 31.78 100.494L32.688 102.276C34.8005 101.2 36.5181 99.4823 37.5945 97.3698L35.8125 96.4618ZM21.4545 66.6818C24.3349 66.6818 26.4351 66.6826 28.0904 66.8178C29.7339 66.9521 30.8506 67.214 31.78 67.6875L32.688 65.9055C31.4296 65.2644 30.0205 64.9689 28.2532 64.8245C26.4976 64.681 24.3019 64.6818 21.4545 64.6818V66.6818ZM38.8182 82.0455C38.8182 79.198 38.819 77.0024 38.6755 75.2468C38.5311 73.4795 38.2356 72.0703 37.5945 70.812L35.8125 71.72C36.286 72.6494 36.5479 73.7661 36.6822 75.4096C36.8174 77.0649 36.8182 79.165 36.8182 82.0455H38.8182ZM31.78 67.6875C33.5162 68.5722 34.9278 69.9838 35.8125 71.72L37.5945 70.812C36.5181 68.6995 34.8005 66.9819 32.688 65.9055L31.78 67.6875ZM17.3636 64.6818C14.5162 64.6818 12.3205 64.681 10.565 64.8245C8.79769 64.9689 7.38853 65.2644 6.1302 65.9055L7.03818 67.6875C7.96758 67.214 9.08424 66.9521 10.7278 66.8178C12.3831 66.6826 14.4832 66.6818 17.3636 66.6818V64.6818ZM2 82.0455C2 79.165 2.00078 77.0649 2.13602 75.4096C2.2703 73.7661 2.53216 72.6494 3.00571 71.72L1.2237 70.812C0.582546 72.0703 0.28705 73.4795 0.142659 75.2468C-0.000777721 77.0024 0 79.198 0 82.0455H2ZM6.1302 65.9055C4.01765 66.9819 2.3001 68.6995 1.2237 70.812L3.00571 71.72C3.89036 69.9838 5.30196 68.5722 7.03818 67.6875L6.1302 65.9055ZM17.3636 58.5H35.7727V56.5H17.3636V58.5ZM45 67.7273V86.1364H47V67.7273H45ZM45 86.1364C45 90.1028 41.7846 93.3182 37.8182 93.3182V95.3182C42.8892 95.3182 47 91.2073 47 86.1364H45ZM35.7727 58.5C40.8688 58.5 45 62.6312 45 67.7273H47C47 61.5266 41.9734 56.5 35.7727 56.5V58.5ZM17.3636 56.5C12.2927 56.5 8.18182 60.6108 8.18182 65.6818H10.1818C10.1818 61.7154 13.3972 58.5 17.3636 58.5V56.5ZM11.9188 90.9496C16.0508 86.9943 22.7674 86.9943 26.8994 90.9496L28.2824 89.5049C23.377 84.8092 15.4412 84.8092 10.5358 89.5049L11.9188 90.9496ZM23.897 81.0982C23.897 83.371 21.9594 85.2873 19.4762 85.2873V87.2873C22.9807 87.2873 25.897 84.557 25.897 81.0982H23.897ZM19.4762 85.2873C16.993 85.2873 15.0554 83.371 15.0554 81.0982H13.0554C13.0554 84.557 15.9717 87.2873 19.4762 87.2873V85.2873ZM15.0554 81.0982C15.0554 78.8253 16.993 76.9091 19.4762 76.9091V74.9091C15.9717 74.9091 13.0554 77.6393 13.0554 81.0982H15.0554ZM19.4762 76.9091C21.9594 76.9091 23.897 78.8253 23.897 81.0982H25.897C25.897 77.6393 22.9807 74.9091 19.4762 74.9091V76.9091Z" fill="#0070CE"/>
<path d="M39.0612 179.714C38.25 178.125 37.1793 176.634 35.8492 175.304C29.029 168.483 17.9712 168.483 11.151 175.304C9.82096 176.634 8.75029 178.125 7.939 179.714M1 165C1 152.574 11.0736 142.5 23.5 142.5C35.9264 142.5 46 152.574 46 165C46 177.426 35.9264 187.5 23.5 187.5C11.0736 187.5 0.999999 177.426 1 165ZM31.6818 160.909C31.6818 165.428 28.0187 169.091 23.5 169.091C18.9813 169.091 15.3182 165.428 15.3182 160.909C15.3182 156.39 18.9813 152.727 23.5 152.727C28.0187 152.727 31.6818 156.39 31.6818 160.909Z" stroke="#3E2B31" stroke-width="2"/>
<path d="M23.5 262.273V262.293M15.3182 245.909C15.3182 241.39 18.9813 237.727 23.5 237.727C28.0187 237.727 31.6818 241.39 31.6818 245.909C31.6818 249.729 29.0641 252.937 25.5248 253.838C24.43 254.117 23.5 255.007 23.5 256.136M46 250C46 262.426 35.9264 272.5 23.5 272.5C11.0736 272.5 1 262.426 1 250C1 237.574 11.0736 227.5 23.5 227.5C35.9264 227.5 46 237.574 46 250Z" stroke="#3E2B31" stroke-width="2" stroke-linecap="round"/>
<path d="M3.5 328.056H43.5M16.8333 316.944H10.6111C8.12199 316.944 6.87743 316.944 5.92671 317.429C5.09043 317.855 4.41052 318.535 3.98442 319.371C3.5 320.322 3.5 321.566 3.5 324.056V345.389C3.5 347.878 3.5 349.123 3.98442 350.073C4.41052 350.91 5.09043 351.589 5.92671 352.016C6.87743 352.5 8.12199 352.5 10.6111 352.5H36.3889C38.878 352.5 40.1226 352.5 41.0733 352.016C41.9096 351.589 42.5895 350.91 43.0156 350.073C43.5 349.123 43.5 347.878 43.5 345.389V324.056C43.5 321.566 43.5 320.322 43.0156 319.371C42.5895 318.535 41.9096 317.855 41.0733 317.429C40.1226 316.944 38.878 316.944 36.3889 316.944H30.1667M16.8333 316.944H30.1667M16.8333 316.944V315.833C16.8333 313.992 15.341 312.5 13.5 312.5C11.6591 312.5 10.1667 313.992 10.1667 315.833V316.944M30.1667 316.944V315.833C30.1667 313.992 31.6591 312.5 33.5 312.5C35.341 312.5 36.8333 313.992 36.8333 315.833V316.944" stroke="#3E2B31" stroke-width="2" stroke-linecap="round"/>
<path d="M57 61C57 59.3431 58.3431 58 60 58V58V103V103C58.3431 103 57 101.657 57 100V61Z" fill="#0070CE"/>
</svg>
