<svg width="47" height="47" viewBox="0 0 47 47" fill="none" xmlns="http://www.w3.org/2000/svg">
<path d="M39.0612 38.2143C38.25 36.6248 37.1793 35.1336 35.8492 33.8035C29.029 26.9833 17.9712 26.9833 11.151 33.8035C9.82096 35.1336 8.75029 36.6248 7.939 38.2143M1 23.5C1 11.0736 11.0736 0.999999 23.5 1C35.9264 1 46 11.0736 46 23.5C46 35.9264 35.9264 46 23.5 46C11.0736 46 0.999999 35.9264 1 23.5ZM31.6818 19.4091C31.6818 23.9278 28.0187 27.5909 23.5 27.5909C18.9813 27.5909 15.3182 23.9278 15.3182 19.4091C15.3182 14.8904 18.9813 11.2273 23.5 11.2273C28.0187 11.2273 31.6818 14.8904 31.6818 19.4091Z" stroke="#3E2B31" stroke-width="2"/>
</svg>
