<svg width="43" height="42" viewBox="0 0 43 42" fill="none" xmlns="http://www.w3.org/2000/svg">
<path d="M1.5 16.5556H41.5M14.8333 5.44444H8.61111C6.12199 5.44444 4.87743 5.44444 3.92671 5.92886C3.09043 6.35496 2.41052 7.03488 1.98442 7.87115C1.5 8.82187 1.5 10.0664 1.5 12.5556V33.8889C1.5 36.378 1.5 37.6226 1.98442 38.5733C2.41052 39.4096 3.09043 40.0895 3.92671 40.5156C4.87743 41 6.12199 41 8.61111 41H34.3889C36.878 41 38.1226 41 39.0733 40.5156C39.9096 40.0895 40.5895 39.4096 41.0156 38.5733C41.5 37.6226 41.5 36.378 41.5 33.8889V12.5556C41.5 10.0664 41.5 8.82187 41.0156 7.87115C40.5895 7.03488 39.9096 6.35496 39.0733 5.92886C38.1226 5.44444 36.878 5.44444 34.3889 5.44444H28.1667M14.8333 5.44444H28.1667M14.8333 5.44444V4.33333C14.8333 2.49238 13.341 1 11.5 1C9.65905 1 8.16667 2.49238 8.16667 4.33333V5.44444M28.1667 5.44444V4.33333C28.1667 2.49238 29.6591 1 31.5 1C33.341 1 34.8333 2.49238 34.8333 4.33333V5.44444" stroke="#3E2B31" stroke-width="2" stroke-linecap="round"/>
</svg>
